<svg width="107" height="104" viewBox="0 0 107 104" fill="none" xmlns="http://www.w3.org/2000/svg">
<path d="M91.3958 10.8333H15.6042L22.2917 84.4999L53.5 93.1666L84.7083 84.4999L91.3958 10.8333Z" fill="#0277BD"/>
<path d="M53.5 17.3333V86.4499L78.4667 79.5166L84.0396 17.3333H53.5Z" fill="#039BE5"/>
<path d="M73.7854 28.1667H53.5V36.8334H64.4229L63.7542 45.5001H53.5V54.1667H63.3083L62.6396 63.9167L53.5 66.9501V76.0501L71.1104 70.4167L72.6708 45.5001L73.7854 28.1667Z" fill="white"/>
<path d="M53.5 28.1667V36.8334H33.6604L32.9917 28.1667H53.5ZM43.2458 45.5001L43.6917 54.1667H53.5V45.5001H43.2458ZM44.1375 58.5001H35.2208L35.8896 70.4167L53.5 76.0501V66.9501L44.3604 63.9167L44.1375 58.5001Z" fill="#EEEEEE"/>
</svg>
