<svg width="107" height="104" viewBox="0 0 107 104" fill="none" xmlns="http://www.w3.org/2000/svg">
<path d="M91.3958 10.8333H15.6042L22.2917 84.4999L53.5 93.1666L84.7083 84.4999L91.3958 10.8333Z" fill="#E65100"/>
<path d="M53.5 17.3333V86.4499L78.4667 79.5166L84.0396 17.3333H53.5Z" fill="#FF6D00"/>
<path d="M53.5 54.1667V45.5001H72.6708L71.1104 70.4167L53.5 76.0501V66.9501L62.6396 63.9167L63.3083 54.1667H53.5ZM73.3396 36.8334L74.0083 28.1667H53.5V36.8334H73.3396Z" fill="white"/>
<path d="M53.5 66.9501V76.0501L35.8896 70.4167L34.9979 58.5001H43.9146L44.3604 63.9167L53.5 66.9501ZM42.5771 36.8334H53.5V28.1667H33.2146L34.775 54.1667H53.5V45.5001H43.2458L42.5771 36.8334Z" fill="#EEEEEE"/>
</svg>
