<svg width="102" height="102" viewBox="0 0 102 102" fill="none" xmlns="http://www.w3.org/2000/svg">
<mask id="mask0_14_19" style="mask-type:luminance" maskUnits="userSpaceOnUse" x="0" y="0" width="102" height="102">
<path d="M101.916 1.9347L1.93469 0L-4.16487e-06 99.9813L99.9813 101.916L101.916 1.9347Z" fill="white"/>
</mask>
<g mask="url(#mask0_14_19)">
<path d="M51.4651 25.3243C37.2794 25.0498 25.6155 36.2733 25.3409 50.4623C25.0663 64.6514 36.2873 76.3177 50.473 76.5922C64.659 76.8667 76.323 65.6432 76.5975 51.4542C76.8721 37.2651 65.6511 25.5988 51.4651 25.3243ZM50.6465 67.6238C41.4792 67.4464 34.1296 59.8274 34.3074 50.6358C34.4853 41.4442 42.1022 34.115 51.2915 34.2928C60.4811 34.4707 67.8088 42.0891 67.6309 51.2807C67.4531 60.4722 59.8138 67.8012 50.6465 67.6238ZM84.14 24.9076C84.0756 28.2318 81.3474 30.8349 78.0464 30.771C74.723 30.7067 72.1206 27.9781 72.1845 24.6763C72.2484 21.3744 74.9767 18.7491 78.2778 18.8129C81.5788 18.8768 84.2038 21.6057 84.14 24.9076ZM100.996 31.3043C100.772 23.2878 99.0803 16.1579 93.3272 10.1992C87.5964 4.24093 80.5392 2.27428 72.5394 1.71775C64.2956 1.08955 39.5596 0.610895 31.2977 0.919702C23.3053 1.14445 16.177 2.83661 10.1977 8.56827C4.21842 14.2999 2.27444 21.3595 1.71797 29.3609C1.08984 37.6064 0.611076 62.3481 0.919748 70.6116C1.14395 78.6282 2.83566 85.7582 8.58873 91.717C14.3418 97.6754 21.377 99.6419 29.3766 100.198C37.6204 100.826 62.3564 101.305 70.6183 100.996C78.6332 100.772 85.7613 99.0797 91.7187 93.3256C97.6757 87.5935 99.642 80.5342 100.199 72.5327C100.827 64.2873 101.305 39.5679 100.996 31.3043ZM89.3655 81.1835C87.5412 85.5226 84.1079 88.8262 79.6796 90.5034C73.0493 92.9866 57.4476 92.082 50.176 91.9413C42.9046 91.8006 27.2578 92.0782 20.7503 89.3631C16.4122 87.5385 13.1094 84.1047 11.4324 79.6754C8.95007 73.0435 9.85449 57.4383 9.99523 50.1654C10.136 42.8924 9.85866 27.242 12.573 20.733C14.3974 16.3939 17.8305 13.0903 22.2587 11.4129C28.8891 8.92993 44.4907 9.83445 51.7621 9.97515C59.0337 10.1159 74.6803 9.83835 81.188 12.5532C85.5262 14.3779 88.8291 17.8119 90.506 22.2411C92.9882 28.8729 92.0838 44.4782 91.9431 51.7511C91.8023 59.0241 92.1019 74.6748 89.3655 81.1835Z" fill="#3C9691"/>
</g>
</svg>
