<svg width="107" height="104" viewBox="0 0 107 104" fill="none" xmlns="http://www.w3.org/2000/svg">
<path d="M13.375 91V13H93.625V91H13.375Z" fill="#FFD600"/>
<path d="M65.8451 71.3852C67.3877 73.8206 69.064 76.1541 72.6151 76.1541C75.5977 76.1541 77.1626 74.7132 77.1626 72.7199C77.1626 70.3344 75.5442 69.4872 72.2629 68.0984L70.464 67.3531C65.2722 65.2124 61.8192 62.5301 61.8192 56.8643C61.8192 51.6426 65.9321 47.6689 72.3587 47.6689C76.9352 47.6689 80.2232 49.2094 82.5951 53.2437L76.9909 56.7256C75.7582 54.5849 74.4252 53.7421 72.3587 53.7421C70.25 53.7421 68.9147 55.0356 68.9147 56.7256C68.9147 58.8142 70.2522 59.6592 73.3396 60.9527L75.1385 61.6981C81.2576 64.2309 84.7083 66.8179 84.7083 72.6332C84.7083 78.8992 79.6169 82.3334 72.7823 82.3334C66.097 82.3334 62.3007 79.0726 60.1875 75.0361L65.8451 71.3852ZM40.018 71.5629C41.146 73.5259 42.8602 75.0361 45.3256 75.0361C47.6841 75.0361 49.0417 74.1304 49.0417 70.6096V47.6667H56.4715V71.7189C56.4715 79.0141 52.1179 82.3334 45.7603 82.3334C40.0158 82.3334 35.8695 78.5504 34.1798 75.0361L40.018 71.5629Z" fill="#000001"/>
</svg>
