<svg width="86" height="86" viewBox="0 0 86 86" fill="none" xmlns="http://www.w3.org/2000/svg">
<rect width="86" height="86" fill="#EDE7C6"/>
<path d="M43 60.9166C19.8875 60.9166 1.79166 53.0333 1.79166 42.9999C1.79166 32.9666 19.8875 25.0833 43 25.0833C66.1125 25.0833 84.2083 32.9666 84.2083 42.9999C84.2083 53.0333 66.1125 60.9166 43 60.9166ZM43 28.6666C20.425 28.6666 5.37499 36.0124 5.37499 42.9999C5.37499 49.9874 20.425 57.3333 43 57.3333C65.575 57.3333 80.625 49.9874 80.625 42.9999C80.625 36.0124 65.575 28.6666 43 28.6666Z" fill="#80DEEA"/>
<path d="M27.0542 79.9083C25.2625 79.9083 23.8292 79.55 22.3958 78.6542C13.6167 73.6375 15.9458 54.1083 27.4125 34.0417C32.7875 24.725 39.4167 16.8417 45.8667 11.825C52.8542 6.45001 59.125 4.83751 63.425 7.34585C67.9042 9.85418 69.5167 16.125 68.4417 24.9042C67.3667 33.1458 63.7833 42.8209 58.4083 52.1375C53.0333 61.4542 46.4042 69.3375 39.9542 74.3542C35.2958 77.9375 30.8167 79.9083 27.0542 79.9083ZM58.9458 9.67501C56.0792 9.67501 52.3167 11.2875 48.1958 14.5125C42.1042 19.35 35.8333 26.875 30.6375 35.8333C19.35 55.3625 18.275 72.2042 24.1875 75.6084C27.2333 77.4 32.25 75.7875 37.8042 71.4875C43.8958 66.65 50.1667 59.125 55.3625 50.1667C60.5583 41.2083 63.9625 32.0708 65.0375 24.3667C65.9333 17.2 64.8583 12.1833 61.8125 10.3917C60.9167 10.0333 60.0208 9.67501 58.9458 9.67501Z" fill="#80DEEA"/>
<path d="M59.125 79.9082C50.1667 79.9082 37.2667 68.9791 27.5917 51.9582C15.9458 31.8916 13.6167 12.3624 22.3958 7.34572C31.175 2.32905 46.9417 13.9749 58.5875 34.0415C63.9625 43.3582 67.5458 53.0332 68.6208 61.2749C69.875 70.0541 68.0833 76.1457 63.6042 78.8332C62.1708 79.5499 60.7375 79.9082 59.125 79.9082ZM24.1875 10.3915C18.275 13.7957 19.35 30.6374 30.6375 50.1665C41.925 69.6957 55.9 79.0124 61.8125 75.6082C64.8583 73.8166 65.9333 68.7999 65.0375 61.6332C63.9625 53.9291 60.5583 44.7915 55.3625 35.8332C44.075 16.3041 30.1 6.98738 24.1875 10.3915Z" fill="#80DEEA"/>
<path d="M43 50.1666C46.9581 50.1666 50.1667 46.958 50.1667 42.9999C50.1667 39.0419 46.9581 35.8333 43 35.8333C39.042 35.8333 35.8333 39.0419 35.8333 42.9999C35.8333 46.958 39.042 50.1666 43 50.1666Z" fill="#80DEEA"/>
</svg>
